<?xml version="1.0" encoding="utf-8"?>
<!-- Generator: Adobe Illustrator 18.1.0, SVG Export Plug-In . SVG Version: 6.00 Build 0)  -->
<svg version="1.1" id="Layer_4" xmlns="http://www.w3.org/2000/svg" xmlns:xlink="http://www.w3.org/1999/xlink" x="0px" y="0px"
	 width="17px" height="40px" viewBox="-631 381 17 40" enable-background="new -631 381 17 40" xml:space="preserve">
<g id="on">
	<path fill="#FF646C" d="M-622.5,404c-4.7,0-8.5,3.8-8.5,8.5s3.8,8.5,8.5,8.5s8.5-3.8,8.5-8.5S-617.8,404-622.5,404z M-624.1,416.3
		l-3-3l1.5-1.5l1.6,1.6l4.4-4.8l1.4,1.4L-624.1,416.3z"/>
</g>
<g id="off">
	<path fill="#BDC1C3" d="M-622.5,382c4.1,0,7.5,3.4,7.5,7.5s-3.4,7.5-7.5,7.5s-7.5-3.4-7.5-7.5S-626.6,382-622.5,382 M-622.5,381
		c-4.7,0-8.5,3.8-8.5,8.5s3.8,8.5,8.5,8.5s8.5-3.8,8.5-8.5S-617.8,381-622.5,381L-622.5,381z"/>
</g>
</svg>
