<?xml version="1.0" encoding="utf-8"?>
<!-- Generator: Adobe Illustrator 18.1.0, SVG Export Plug-In . SVG Version: 6.00 Build 0)  -->
<svg version="1.1" id="Layer_4" xmlns="http://www.w3.org/2000/svg" xmlns:xlink="http://www.w3.org/1999/xlink" x="0px" y="0px"
	 width="17px" height="40px" viewBox="2 -14 17 40" enable-background="new 2 -14 17 40" xml:space="preserve">
    <g id="on">
        <path fill="#DC6147" d="M10.5,9C5.806,9,2,12.806,2,17.5S5.806,26,10.5,26s8.5-3.806,8.5-8.5S15.194,9,10.5,9z M10.146,21.25
	l-3.414-3.018l1.802-1.829L10,18l3.625-3.812l1.667,1.521L10.146,21.25z"/>
    </g>
    <g id="off">
        <path fill="#BDC1C3" d="M10.5-13c4.136,0,7.5,3.364,7.5,7.5S14.636,2,10.5,2S3-1.364,3-5.5S6.364-13,10.5-13 M10.503-14
	c-4.693,0-8.497,3.805-8.497,8.497s3.805,8.497,8.497,8.497S19-0.81,19-5.503C19-10.195,15.195-14,10.503-14L10.503-14z"/>
    </g>
</svg>
