<?xml version="1.0" encoding="utf-8"?>
<!-- Generator: Adobe Illustrator 18.1.0, SVG Export Plug-In . SVG Version: 6.00 Build 0)  -->
<svg version="1.1" id="Layer_2" xmlns="http://www.w3.org/2000/svg" xmlns:xlink="http://www.w3.org/1999/xlink" x="0px" y="0px"
	 width="15px" height="15px" viewBox="1 0 15 15" enable-background="new 1 0 15 15" xml:space="preserve">
<g>
	<path fill="#B0B4B5" d="M4.801,1.129v0.837c1.782,0,3.044,1.432,3.054,1.444l0.637,0.748l0.637-0.748
		c0.012-0.014,1.28-1.444,3.054-1.444c1.745,0,2.964,1.352,2.964,3.289c0,3.992-5.114,7.717-6.655,8.749
		c-1.541-1.031-6.655-4.757-6.655-8.749c0-1.936,1.219-3.289,2.964-3.289V1.129 M4.801,1.129C2.607,1.129,1,2.851,1,5.255
		C1,10.467,8.492,15,8.492,15s7.492-4.533,7.492-9.745c0-2.404-1.607-4.126-3.801-4.126c-2.211,0-3.691,1.738-3.691,1.738
		S7.011,1.129,4.801,1.129L4.801,1.129z"/>
</g>
</svg>
