<?xml version="1.0" encoding="utf-8"?>
<!-- Generator: Adobe Illustrator 18.1.0, SVG Export Plug-In . SVG Version: 6.00 Build 0)  -->
<svg version="1.1" id="Layer_1" xmlns="http://www.w3.org/2000/svg" xmlns:xlink="http://www.w3.org/1999/xlink" x="0px" y="0px"
	 width="86.5px" height="14.9px" viewBox="0 0 86.5 14.9" enable-background="new 0 0 86.5 14.9" xml:space="preserve">
<g>
	<path fill="#585858" d="M1.2,13.1h1.6V2.5H1.2V1.7h2.9l7,10.8h0v-10H9.4V1.7h4.2v0.8H12v11.6H11L3.7,2.8h0v10.3h1.7v0.8H1.2V13.1z"
		/>
	<path fill="#585858" d="M19.4,5.2c2.4,0,4.2,1.9,4.2,4.5c0,2.6-1.8,4.5-4.2,4.5c-2.4,0-4.2-1.9-4.2-4.5C15.2,7.1,17,5.2,19.4,5.2z
		 M19.4,13.3c1.9,0,3.3-1.5,3.3-3.7c0-2.1-1.4-3.7-3.3-3.7s-3.3,1.5-3.3,3.7C16.1,11.8,17.5,13.3,19.4,13.3z"/>
	<path fill="#585858" d="M25.1,6.2V5.4h1.5V3.5l0.9-0.7v2.6h1.8v0.8h-1.8v5.9c0,1,0.2,1.4,1.8,1v0.8c-1.6,0.5-2.7,0.1-2.7-1.4V6.2
		H25.1z"/>
	<path fill="#585858" d="M31.9,9.9c0,2,1.6,3.5,3.6,3.5c1.3,0,2.5-0.7,3.3-1.9l0.7,0.3c-0.8,1.4-2.4,2.3-4.2,2.3
		c-2.6,0-4.4-1.9-4.4-4.5c0-2.6,1.8-4.5,4.3-4.5c2.5,0,4.2,1.9,4.2,4.7H31.9z M38.6,9c-0.3-2-1.6-3.1-3.3-3.1c-1.7,0-3,1.2-3.3,3.1
		H38.6z"/>
	<path fill="#585858" d="M41.3,13.1h1.5V6.2h-1.5V5.4h2.4v1.3c1-0.9,2.1-1.4,3.2-1.4c1.1,0,1.9,0.6,2.2,1.5c1-1,2.3-1.5,3.3-1.5
		c1.4,0,2.2,0.8,2.2,2.3v5.5h1.4v0.8h-3.8v-0.8h1.5V7.7c0-1-0.5-1.5-1.4-1.5c-1,0-2.1,0.6-3.1,1.5v5.4h1.4v0.8h-3.8v-0.8h1.5V7.7
		c0-1-0.4-1.5-1.4-1.5c-1,0-1.9,0.4-3.1,1.5v5.4h1.4v0.8h-3.8V13.1z"/>
	<path fill="#585858" d="M63.7,12.7c-1.1,0.9-2.1,1.4-3.2,1.4c-1.4,0-2.6-1.1-2.6-2.5c0-1.5,1.3-2.6,3.2-2.6c0.8,0,1.7,0.2,2.6,0.7
		v-2c0-1.1-0.7-1.8-2.3-1.8c-1.3,0-2.2,0.5-2.6,1.5l-0.7-0.2c0.7-1.4,1.7-1.9,3.4-1.9c2.2,0,3.1,1,3.1,2.4v5.5H66v0.8h-2.3V12.7z
		 M63.7,10.3c-1-0.6-1.6-0.8-2.4-0.8c-1.4,0-2.4,0.8-2.4,2c0,1,0.8,1.7,1.9,1.7c1,0,2.2-0.6,2.9-1.4V10.3z"/>
	<path fill="#585858" d="M67.9,13.1h1.6V6.2h-1.6V5.4h2.6v2.1h0c0.6-1.5,2-2.3,3.9-2.2v0.9c-3.3-0.1-3.9,1.3-3.9,3.4v3.5h1.7v0.8
		h-4.3V13.1z"/>
	<path fill="#585858" d="M75.4,13.1H77V2.5h-1.6V1.7h2.5v7.7l4.5-3.2v0h-1.3V5.4h3.5v0.8h-1.1l-4.5,3.2l4.2,3.7h1.5v0.8H83l-5-4.4
		v3.6h1.6v0.8h-4.1V13.1z"/>
</g>
</svg>
