<?xml version="1.0" encoding="utf-8"?>
<!-- Generator: Adobe Illustrator 18.1.0, SVG Export Plug-In . SVG Version: 6.00 Build 0)  -->
<svg version="1.1" id="Layer_2" xmlns="http://www.w3.org/2000/svg" xmlns:xlink="http://www.w3.org/1999/xlink" x="0px" y="0px"
	 width="15px" height="15px" viewBox="0 0 15 15" enable-background="new 0 0 15 15" xml:space="preserve">
<path fill="#BDC1C3" d="M13.748,1C13.887,1,14,1.113,14,1.252V10H5V1H13.748 M14,0L5,0C4.448,0,4,0.448,4,1l0,9c0,0.552,0.448,1,1,1
	l9,0c0.552,0,1-0.448,1-1l0-9C15,0.448,14.552,0,14,0L14,0z"/>
<g>
	<path fill="#BDC1C3" d="M10,14H1V5h2V4H1C0.448,4,0,4.448,0,5v9c0,0.552,0.448,1,1,1h9c0.552,0,1-0.448,1-1v-2h-1V14z"/>
</g>
</svg>
