<?xml version="1.0" encoding="utf-8"?>
<!-- Generator: Adobe Illustrator 18.1.0, SVG Export Plug-In . SVG Version: 6.00 Build 0)  -->
<svg version="1.1" id="Layer_2_copy" xmlns="http://www.w3.org/2000/svg" xmlns:xlink="http://www.w3.org/1999/xlink" x="0px"
	 y="0px" width="162px" height="162px" viewBox="0 0 162 162" enable-background="new 0 0 162 162" xml:space="preserve">
<g>
	<path fill="#F5F5F5" d="M80.5,157C38.3,157,4,122.7,4,80.5C4,38.3,38.3,4,80.5,4C122.7,4,157,38.3,157,80.5
		C157,122.7,122.7,157,80.5,157z"/>
	<g>
		<path fill="#BEC4C6" d="M80.5,6.5c40.8,0,74,33.2,74,74s-33.2,74-74,74s-74-33.2-74-74S39.7,6.5,80.5,6.5 M80.5,1.5
			c-43.6,0-79,35.4-79,79s35.4,79,79,79s79-35.4,79-79S124.1,1.5,80.5,1.5L80.5,1.5z"/>
	</g>
</g>
<polygon fill="#A5AAAD" points="108.5,53.5 103.7,53.5 81.5,75.5 59.3,53.5 54.5,53.5 54.5,58.3 76.5,80.5 54.5,102.7 54.5,107.5 
	59.3,107.5 81.5,85.5 103.7,107.5 108.5,107.5 108.5,102.7 86.5,80.5 108.5,58.3 "/>
</svg>
