<?xml version="1.0" encoding="utf-8"?>
<!-- Generator: Adobe Illustrator 18.1.0, SVG Export Plug-In . SVG Version: 6.00 Build 0)  -->
<svg version="1.1" id="Layer_2" xmlns="http://www.w3.org/2000/svg" xmlns:xlink="http://www.w3.org/1999/xlink" x="0px" y="0px"
	 width="25px" height="25px" viewBox="0 0 25 25" enable-background="new 0 0 25 25" xml:space="preserve">
<g id="Settings">
	<g>
		<path fill="none" stroke="#DD5E41" stroke-miterlimit="10" d="M22.663,11.364c-0.032-0.288-0.368-0.504-0.657-0.504
			c-0.937,0-1.769-0.55-2.118-1.401c-0.356-0.872-0.127-1.888,0.572-2.529c0.22-0.201,0.247-0.537,0.062-0.771
			C20.042,5.55,19.497,5,18.902,4.523c-0.233-0.187-0.575-0.161-0.777,0.063c-0.61,0.675-1.705,0.926-2.551,0.573
			c-0.881-0.37-1.436-1.263-1.381-2.22c0.018-0.301-0.202-0.562-0.502-0.597c-0.764-0.088-1.535-0.091-2.301-0.006
			c-0.297,0.033-0.516,0.288-0.506,0.585c0.033,0.948-0.529,1.825-1.4,2.182C8.647,5.444,7.559,5.195,6.951,4.526
			C6.75,4.305,6.413,4.278,6.179,4.461c-0.613,0.481-1.17,1.032-1.655,1.636C4.336,6.331,4.364,6.672,4.586,6.874
			c0.712,0.645,0.942,1.67,0.572,2.552c-0.353,0.841-1.226,1.382-2.225,1.382c-0.324-0.01-0.555,0.207-0.591,0.502
			c-0.09,0.768-0.091,1.551-0.004,2.326c0.032,0.289,0.378,0.503,0.671,0.503c0.891-0.023,1.746,0.529,2.104,1.401
			c0.358,0.872,0.128,1.888-0.572,2.529c-0.219,0.201-0.247,0.537-0.062,0.771c0.475,0.605,1.02,1.156,1.618,1.637
			c0.234,0.189,0.575,0.162,0.778-0.062c0.612-0.677,1.707-0.927,2.55-0.574c0.883,0.369,1.438,1.261,1.384,2.22
			c-0.018,0.301,0.203,0.563,0.502,0.597c0.391,0.046,0.784,0.068,1.178,0.068c0.374,0,0.748-0.021,1.123-0.062
			c0.297-0.033,0.516-0.288,0.506-0.586c-0.034-0.948,0.529-1.824,1.399-2.181c0.842-0.344,1.924-0.092,2.533,0.576
			c0.202,0.22,0.536,0.247,0.772,0.065c0.612-0.48,1.168-1.03,1.655-1.636c0.189-0.234,0.162-0.575-0.061-0.777
			c-0.712-0.645-0.943-1.67-0.573-2.551c0.348-0.829,1.188-1.386,2.092-1.386l0.126,0.003c0.293,0.024,0.563-0.202,0.599-0.501
			C22.749,12.921,22.75,12.139,22.663,11.364z M12.516,15.933c-1.881,0-3.411-1.53-3.411-3.411c0-1.881,1.53-3.411,3.411-3.411
			c1.881,0,3.411,1.53,3.411,3.411C15.927,14.403,14.397,15.933,12.516,15.933z"/>
	</g>
</g>
</svg>
