<?xml version="1.0" encoding="utf-8"?>
<!-- Generator: Adobe Illustrator 18.1.0, SVG Export Plug-In . SVG Version: 6.00 Build 0)  -->
<svg version="1.1" id="Layer_2" xmlns="http://www.w3.org/2000/svg" xmlns:xlink="http://www.w3.org/1999/xlink" x="0px" y="0px"
	 width="25px" height="25px" viewBox="-627 388 25 25" enable-background="new -627 388 25 25" xml:space="preserve">
<g id="Settings">
	<g>
		<path fill="none" stroke="#696B6B" stroke-miterlimit="10" d="M-604.3,399.4c0-0.3-0.4-0.5-0.7-0.5c-0.9,0-1.8-0.5-2.1-1.4
			c-0.4-0.9-0.1-1.9,0.6-2.5c0.2-0.2,0.2-0.5,0.1-0.8c-0.5-0.6-1-1.2-1.6-1.6c-0.2-0.2-0.6-0.2-0.8,0.1c-0.6,0.7-1.7,0.9-2.6,0.6
			c-0.9-0.4-1.4-1.3-1.4-2.2c0-0.3-0.2-0.6-0.5-0.6c-0.8-0.1-1.5-0.1-2.3,0c-0.3,0-0.5,0.3-0.5,0.6c0,0.9-0.5,1.8-1.4,2.2
			c-0.8,0.3-1.9,0.1-2.5-0.6c-0.2-0.2-0.5-0.2-0.8-0.1c-0.6,0.5-1.2,1-1.7,1.6c-0.2,0.2-0.2,0.6,0.1,0.8c0.7,0.6,0.9,1.7,0.6,2.6
			c-0.4,0.8-1.2,1.4-2.2,1.4c-0.3,0-0.6,0.2-0.6,0.5c-0.1,0.8-0.1,1.6,0,2.3c0,0.3,0.4,0.5,0.7,0.5c0.9,0,1.7,0.5,2.1,1.4
			c0.4,0.9,0.1,1.9-0.6,2.5c-0.2,0.2-0.2,0.5-0.1,0.8c0.5,0.6,1,1.2,1.6,1.6c0.2,0.2,0.6,0.2,0.8-0.1c0.6-0.7,1.7-0.9,2.5-0.6
			c0.9,0.4,1.4,1.3,1.4,2.2c0,0.3,0.2,0.6,0.5,0.6c0.4,0,0.8,0.1,1.2,0.1c0.4,0,0.7,0,1.1-0.1c0.3,0,0.5-0.3,0.5-0.6
			c0-0.9,0.5-1.8,1.4-2.2c0.8-0.3,1.9-0.1,2.5,0.6c0.2,0.2,0.5,0.2,0.8,0.1c0.6-0.5,1.2-1,1.7-1.6c0.2-0.2,0.2-0.6-0.1-0.8
			c-0.7-0.6-0.9-1.7-0.6-2.6c0.3-0.8,1.2-1.4,2.1-1.4l0.1,0c0.3,0,0.6-0.2,0.6-0.5C-604.3,400.9-604.2,400.1-604.3,399.4z
			 M-614.5,403.9c-1.9,0-3.4-1.5-3.4-3.4s1.5-3.4,3.4-3.4s3.4,1.5,3.4,3.4S-612.6,403.9-614.5,403.9z"/>
	</g>
</g>
</svg>
